HIERARCHY
ROOT Hips
{
	OFFSET 0.00000 0.00000 0.00000
	CHANNELS 6 Xposition Yposition Zposition Zrotation Yrotation Xrotation 
	JOINT LHipJoint
	{
		OFFSET 0 0 0
		CHANNELS 3 Zrotation Yrotation Xrotation
		JOINT LeftUpLeg
		{
			OFFSET 1.55766 -1.60504 1.11378
			CHANNELS 3 Zrotation Yrotation Xrotation
			JOINT LeftLeg
			{
				OFFSET 2.29047 -6.29302 0.00000
				CHANNELS 3 Zrotation Yrotation Xrotation
				JOINT LeftFoot
				{
					OFFSET 2.52265 -6.93093 0.00000
					CHANNELS 3 Zrotation Yrotation Xrotation
					JOINT LeftToeBase
					{
						OFFSET 0.17633 -0.48446 2.02656
						CHANNELS 3 Zrotation Yrotation Xrotation
						End Site
						{
							OFFSET 0.00000 -0.00000 1.04989
						}
					}
				}
			}
		}
	}
	JOINT RHipJoint
	{
		OFFSET 0 0 0
		CHANNELS 3 Zrotation Yrotation Xrotation
		JOINT RightUpLeg
		{
			OFFSET -1.48599 -1.60504 1.11378
			CHANNELS 3 Zrotation Yrotation Xrotation
			JOINT RightLeg
			{
				OFFSET -2.27280 -6.24448 0.00000
				CHANNELS 3 Zrotation Yrotation Xrotation
				JOINT RightFoot
				{
					OFFSET -2.50834 -6.89161 0.00000
					CHANNELS 3 Zrotation Yrotation Xrotation
					JOINT RightToeBase
					{
						OFFSET -0.26967 -0.74090 2.08741
						CHANNELS 3 Zrotation Yrotation Xrotation
						End Site
						{
							OFFSET -0.00000 -0.00000 1.10614
						}
					}
				}
			}
		}
	}
	JOINT LowerBack
	{
		OFFSET 0 0 0
		CHANNELS 3 Zrotation Yrotation Xrotation
		JOINT Spine
		{
			OFFSET 0.06481 2.02437 -0.08472
			CHANNELS 3 Zrotation Yrotation Xrotation
			JOINT Spine1
			{
				OFFSET 0.00015 1.96711 0.18069
				CHANNELS 3 Zrotation Yrotation Xrotation
				JOINT Neck
				{
					OFFSET 0 0 0
					CHANNELS 3 Zrotation Yrotation Xrotation
					JOINT Neck1
					{
						OFFSET -0.29961 1.68293 -0.13041
						CHANNELS 3 Zrotation Yrotation Xrotation
						JOINT Head
						{
							OFFSET 0.59697 1.61501 -0.14669
							CHANNELS 3 Zrotation Yrotation Xrotation
							End Site
							{
								OFFSET 0.22973 1.74906 -0.10148
							}
						}
					}
				}
				JOINT LeftShoulder
				{
					OFFSET 0 0 0
					CHANNELS 3 Zrotation Yrotation Xrotation
					JOINT LeftArm
					{
						OFFSET 3.37968 1.02893 0.31147
						CHANNELS 3 Zrotation Yrotation Xrotation
						JOINT LeftForeArm
						{
							OFFSET 5.19807 -0.00000 -0.00000
							CHANNELS 3 Zrotation Yrotation Xrotation
							JOINT LeftHand
							{
								OFFSET 3.09370 -0.00000 -0.00000
								CHANNELS 3 Zrotation Yrotation Xrotation
								JOINT LeftFingerBase
								{
									OFFSET 0 0 0
									CHANNELS 3 Zrotation Yrotation Xrotation
									JOINT LeftHandIndex1
									{
										OFFSET 0.67263 -0.00000 -0.00000
										CHANNELS 3 Zrotation Yrotation Xrotation
										End Site
										{
											OFFSET 0.54229 -0.00000 -0.00000
										}
									}
								}
								JOINT LThumb
								{
									OFFSET 0 0 0
									CHANNELS 3 Zrotation Yrotation Xrotation
									End Site
									{
										OFFSET 0.55057 -0.00000 0.55057
									}
								}
							}
						}
					}
				}
				JOINT RightShoulder
				{
					OFFSET 0 0 0
					CHANNELS 3 Zrotation Yrotation Xrotation
					JOINT RightArm
					{
						OFFSET -3.38254 0.96355 -0.16120
						CHANNELS 3 Zrotation Yrotation Xrotation
						JOINT RightForeArm
						{
							OFFSET -5.45222 -0.00000 -0.00000
							CHANNELS 3 Zrotation Yrotation Xrotation
							JOINT RightHand
							{
								OFFSET -3.01284 -0.00000 -0.00000
								CHANNELS 3 Zrotation Yrotation Xrotation
								JOINT RightFingerBase
								{
									OFFSET 0 0 0
									CHANNELS 3 Zrotation Yrotation Xrotation
									JOINT RightHandIndex1
									{
										OFFSET -0.62230 -0.00000 -0.00000
										CHANNELS 3 Zrotation Yrotation Xrotation
										End Site
										{
											OFFSET -0.50171 -0.00000 -0.00000
										}
									}
								}
								JOINT RThumb
								{
									OFFSET 0 0 0
									CHANNELS 3 Zrotation Yrotation Xrotation
									End Site
									{
										OFFSET -0.50937 -0.00000 0.50937
									}
								}
							}
						}
					}
				}
			}
		}
	}
}
MOTION
Frames: 7
Frame Time: 0.0166666
1.4007 15.7372 22.1819 -13.9694 -55.8277 28.2873 0.0000 0.0000 0.0000 9.1358 -24.2654 -37.0054 2.0889 9.0488 25.9482 0.1120 -10.8659 -9.2327 5.3353 -13.7517 -42.2518 0.0000 0.0000 0.0000 18.7958 30.0893 -9.2758 -2.3131 -9.4899 27.3400 1.5387 27.9462 -9.1351 -0.3403 3.7485 -10.3703 7.8147 -0.6868 -1.7562 3.1171 -0.9129 -3.9821 -1.1313 -0.6787 -3.2172 -28.2190 -15.9666 44.8024 43.8883 -31.5366 -15.2238 20.7440 -20.9335 2.1801 -0.0000 -0.0000 0.0000 -79.9084 9.5065 33.4624 26.8709 -38.0558 -9.4194 -0.0000 0.0000 -39.2695 21.0871 -15.8578 -6.0149 -7.1250 0.0000 -0.0000 -4.4242 13.0843 3.3179 -0.0000 -0.0000 0.0000 85.1955 -3.2720 38.5096 -15.1707 24.3833 -3.2961 0.0000 0.0000 17.7643 -14.7195 -0.0081 0.0021 7.1250 -0.0000 -0.0000 9.3085 -29.9214 3.4657
1.4452 15.7479 21.9713 -13.5719 -53.6979 28.3263 0.0000 0.0000 0.0000 10.6855 -24.9057 -37.9960 1.8832 8.6185 24.6090 0.1789 -10.4414 -9.8959 5.3426 -13.7595 -42.2825 0.0000 0.0000 0.0000 19.7168 28.4055 -9.9245 -2.1312 -9.1342 26.2160 1.0830 26.5620 -11.2066 -0.3675 3.8943 -10.7794 8.6002 -0.4854 -1.4623 3.0758 -0.5986 -4.1287 -1.6051 -0.5610 -3.5307 -28.2841 -15.5390 43.8245 44.0418 -30.8020 -14.9713 20.9592 -20.5137 2.1161 0.0000 0.0000 0.0000 -79.9929 9.7506 32.0431 26.8171 -38.0042 -9.3863 -0.0000 0.0000 -38.9581 21.3184 -15.8912 -6.0993 -7.1250 0.0000 -0.0000 -4.2710 13.0214 3.2080 0.0000 0.0000 0.0000 84.7302 -3.4376 40.3908 -15.2827 24.5385 -3.3425 0.0000 0.0000 17.7742 -13.9257 0.1701 -0.0422 7.1250 -0.0000 -0.0000 9.9096 -29.7310 3.7411
1.4902 15.7687 21.7664 -13.2371 -51.6485 28.4538 0.0000 0.0000 0.0000 11.8121 -24.8458 -39.1098 1.7242 8.2664 23.5261 0.2761 -9.7596 -10.8286 5.0760 -13.4688 -41.1498 0.0000 0.0000 0.0000 20.5661 26.4430 -10.7075 -1.9298 -8.7183 24.9181 0.7424 25.4273 -12.7109 -0.3793 3.9555 -10.9515 9.3683 -0.2504 -1.1845 3.0180 -0.2321 -4.3289 -2.0897 -0.4237 -3.8798 -28.3501 -15.1119 42.8661 44.1371 -30.0804 -14.6618 21.1436 -20.0891 2.0560 0.0000 -0.0000 0.0000 -80.1147 10.1511 30.7073 26.8371 -38.0234 -9.3986 -0.0000 0.0000 -38.9956 21.8465 -15.8266 -6.2399 -7.1250 0.0000 -0.0000 -3.9131 13.0262 2.9374 0.0000 -0.0000 0.0000 84.1462 -3.6690 42.3255 -15.5083 24.8495 -3.4367 0.0000 0.0000 17.5391 -12.6890 0.5429 -0.1222 7.1250 -0.0000 -0.0000 10.8301 -29.3410 4.2021
1.5373 15.7953 21.5669 -12.9102 -49.7112 28.6352 0.0000 0.0000 0.0000 12.2517 -23.8411 -40.3361 1.6177 8.0198 22.7742 0.3788 -8.5573 -11.6753 4.8265 -13.1857 -40.0678 0.0000 0.0000 0.0000 21.3259 24.6818 -11.7284 -1.7819 -8.3961 23.9238 0.4289 24.2785 -14.0586 -0.4338 4.2264 -11.7146 10.0557 -0.0007 -0.9609 2.9279 0.1532 -4.5531 -2.5673 -0.2789 -4.2128 -28.9792 -14.4750 41.7597 43.6951 -29.5942 -13.5195 22.0609 -19.6878 2.1218 0.0000 -0.0000 0.0000 -80.3121 10.6571 29.3458 26.8735 -38.0583 -9.4210 -0.0000 0.0000 -39.2050 22.6113 -15.7884 -6.4652 -7.1250 0.0000 -0.0000 -3.3978 12.9724 2.5529 0.0000 -0.0000 0.0000 83.5492 -3.8651 44.1725 -15.7759 25.2158 -3.5499 0.0000 0.0000 17.3524 -11.3190 0.8611 -0.1724 7.1250 -0.0000 -0.0000 11.8511 -29.0082 4.7094
1.5883 15.8213 21.3744 -12.4755 -47.7475 28.6554 0.0000 0.0000 0.0000 11.8977 -22.1427 -41.5511 1.5754 7.9193 22.4691 0.4529 -6.5910 -12.1490 4.8650 -13.2301 -40.2361 0.0000 0.0000 0.0000 22.0263 23.4993 -12.8687 -1.7355 -8.2920 23.6046 0.0601 22.6497 -15.5230 -0.5616 4.7999 -13.3387 10.6520 0.1635 -0.7011 2.8075 0.4300 -4.7330 -3.0269 -0.1856 -4.5254 -29.2680 -13.9777 40.5662 43.3341 -29.0231 -12.5628 22.7078 -19.2654 2.1881 0.0000 0.0000 0.0000 -80.6204 11.1885 27.7916 26.8491 -38.0349 -9.4060 -0.0000 0.0000 -39.4523 23.4762 -15.9062 -6.7880 -7.1250 0.0000 -0.0000 -2.8263 12.7358 2.1364 0.0000 0.0000 0.0000 82.8996 -3.9865 46.1166 -16.0989 25.6545 -3.6887 0.0000 0.0000 17.2755 -10.0568 0.9796 -0.1737 7.1250 -0.0000 -0.0000 12.8053 -28.8772 5.1466
1.6409 15.8439 21.1859 -11.9701 -45.7934 28.5426 0.0000 0.0000 0.0000 10.9718 -20.1216 -42.7436 1.6221 8.0302 22.8057 0.4642 -4.2178 -12.1208 5.0241 -13.4109 -40.9266 0.0000 0.0000 0.0000 22.6374 23.1618 -14.0129 -1.7841 -8.4011 23.9391 -0.3322 20.3830 -16.9162 -0.7320 5.4662 -15.2430 11.0828 0.2490 -0.3743 2.6756 0.6090 -4.8547 -3.4078 -0.1337 -4.8223 -29.2380 -13.5719 39.3817 43.4285 -28.2786 -12.0068 22.8476 -18.8112 2.2091 0.0000 0.0000 0.0000 -80.9931 11.6875 26.0660 26.6916 -37.8835 -9.3091 -0.0000 0.0000 -39.7087 24.2106 -16.1860 -7.1442 -7.1250 0.0000 -0.0000 -2.3564 12.3372 1.8001 0.0000 0.0000 0.0000 82.1496 -4.0966 48.1252 -16.5128 26.2110 -3.8697 0.0000 0.0000 17.2218 -9.1183 1.1059 -0.1775 7.1250 -0.0000 -0.0000 13.5065 -28.7420 5.4876
1.6902 15.8637 20.9986 -11.4450 -43.9508 28.4027 0.0000 0.0000 0.0000 9.7431 -18.0406 -43.9423 1.7715 8.3731 23.8531 0.4296 -2.2061 -11.8158 5.0431 -13.4321 -41.0085 0.0000 0.0000 0.0000 23.0930 23.4994 -15.1381 -1.8862 -8.6249 24.6289 -0.6510 17.8510 -17.9235 -0.8866 6.0022 -16.7908 11.2944 0.3354 -0.0435 2.5290 0.7833 -4.9194 -3.6862 -0.0711 -5.0569 -29.1319 -13.2358 38.1038 43.5640 -27.5628 -11.4843 22.9657 -18.3676 2.2445 -0.0000 -0.0000 0.0000 -81.3533 12.0714 24.2826 26.3350 -37.5376 -9.0910 -0.0000 0.0000 -39.9294 24.5411 -16.4460 -7.3656 -7.1250 0.0000 -0.0000 -2.1569 12.0110 1.6621 -0.0000 -0.0000 0.0000 81.4072 -4.2343 49.7354 -16.9733 26.8226 -4.0753 0.0000 0.0000 17.1975 -8.6588 1.2050 -0.1835 7.1250 -0.0000 -0.0000 13.8438 -28.6391 5.6671
